<svg width="702" height="651" viewBox="0 0 702 651" fill="none" xmlns="http://www.w3.org/2000/svg">
<path fill-rule="evenodd" clip-rule="evenodd" d="M625.679 79.7067C669.205 119.307 680.693 181.45 689.603 239.615C697.932 293.989 691.415 347.496 674.73 399.913C656.389 457.535 633.772 513.949 589.255 554.874C537.047 602.87 475.015 650.533 404.122 648.688C331.871 646.808 261.696 604.018 219.617 545.256C181.088 491.451 203.245 418.793 192.712 353.458C183.162 294.223 132.156 233.465 160.858 180.775C189.823 127.603 270.154 139.373 324.202 112.079C372.402 87.7384 405.596 35.8356 459.284 30.0706C518.277 23.7359 581.793 39.7785 625.679 79.7067Z" fill="#DDA157"/>
</svg>
